PathFileType	4	(X/Y/Z)	27_1_44_p0_0-371_filt_butterworth.trc
DataRate	CameraRate	NumFrames	NumMarkers	Units	OrigDataRate	OrigDataStartFrame	OrigNumFrames
60.0	60.0	4	27	m	60.0	0	371
Frame#	Time	RHip			RKnee			RAnkle			RBigToe			RSmallToe			RHeel			LHip			LKnee			LAnkle			LBigToe			LSmallToe			LHeel			Neck			Head			Nose			RShoulder			RElbow			RWrist			RThumb			RIndex			RPinky			LShoulder			LElbow			LWrist			LThumb			LIndex			LPinky			
		X1	Y1	Z1	X2	Y2	Z2	X3	Y3	Z3	X4	Y4	Z4	X5	Y5	Z5	X6	Y6	Z6	X7	Y7	Z7	X8	Y8	Z8	X9	Y9	Z9	X10	Y10	Z10	X11	Y11	Z11	X12	Y12	Z12	X13	Y13	Z13	X14	Y14	Z14	X15	Y15	Z15	X16	Y16	Z16	X17	Y17	Z17	X18	Y18	Z18	X19	Y19	Z19	X20	Y20	Z20	X21	Y21	Z21	X22	Y22	Z22	X23	Y23	Z23	X24	Y24	Z24	X25	Y25	Z25	X26	Y26	Z26	X27	Y27	Z27	
0	0.0	0.14960199242577288	0.552798316146393	0.8534331085538386	0.16323195946100633	0.7063346204685903	1.3610587878880716	0.18751053451006636	0.7927949263574928	1.809436871508436	0.1346630998859225	0.5730915825560422	1.839095099900395	0.19119918231910216	0.5802381740848639	1.8229792620339536	0.1728689144668772	0.9024908786462413	1.887851742041517	-0.07509206730353557	0.5873418187876409	0.874678624118882	-0.05810291334718565	0.7280368735148861	1.3632279696603966	-0.031835183381548574	0.8084822682486486	1.8319572439927478	-0.04369738653830082	0.5655661712771669	1.823198553755344	-0.09083210270079423	0.632938788704555	1.8435660758684693	-0.0049462837203486845	0.8359863219276807	1.8705100416399287	-0.0004611935244371427	0.5293326055335232	0.3158509722476135	-0.006287244684150157	0.4647408869178811	0.0802507967875796	-0.024179438998673926	0.42315146275708976	0.20111177595024465	0.16294920215392855	0.5250787572659048	0.3969235269899126	0.19852073952069474	0.45421246514634595	0.6618196591982629	0.09256264515715634	0.3308914833121367	0.8748739914554915	0.06272631726208167	0.351436817393908	0.9704991621908152	0.07278262405133713	0.35910121380539356	1.0153285127185876	0.04988935707470603	0.37972104754815633	1.0122974214684577	-0.16056543724093827	0.5552680815274126	0.41810090876910055	-0.16609874744241004	0.5350080097283446	0.6851528082351757	-0.05784002711505871	0.38100786182133406	0.8941318693138212	0.06384918816582297	0.3726926279893842	0.9526356208703053	0.07120669660257126	0.3794018399714113	0.9834678561358261	0.004240344410641084	0.31790574581740727	1.0108227077250491
1	0.0166666666666666	0.14848044689018644	0.5612355780954803	0.8599101545811692	0.16389869608120958	0.7062073087042059	1.3596533772578752	0.18739986350871382	0.792634776942859	1.80986288280675	0.13322648829377595	0.5799870269213274	1.8425938250272849	0.1933920795314121	0.5815996422749337	1.824524509416067	0.16831684900542604	0.8934835412407796	1.8867205856084939	-0.07505657162331968	0.5886320097660194	0.8788576156674499	-0.05836310090724772	0.7281613440103437	1.3649247785350673	-0.033524501828619505	0.7909566453514262	1.8292382149900916	-0.043715091831855145	0.5653917309726888	1.8230145548386616	-0.09311066196184145	0.6311503907933959	1.842581580213577	-0.006028739782614983	0.8356757945665888	1.8735078956770461	-0.00042229092889265385	0.5292734950076137	0.31578458677306515	-0.006177981243230609	0.4645586841866146	0.08021967291024781	-0.02243850990497832	0.42348337402909636	0.1990771418630369	0.16043975991834997	0.5251755673301736	0.39731692799340496	0.196910992128916	0.4540312876779701	0.6613106643953713	0.09514293291168387	0.3554746824299093	0.8865724853047696	0.05903606638222607	0.3611297437833404	0.9803262793902063	0.06567174580576406	0.3648939927569215	1.0260076852344637	0.05151120032186291	0.3843505059962723	1.0184015782847573	-0.1605314454967216	0.5551344301109935	0.4180858215489804	-0.16358400432769815	0.5428805035748272	0.6842904278625325	-0.05884671753639041	0.3941546295767249	0.8974014647336936	0.06124449435156476	0.3778476352202885	0.9562716661807571	0.06591009673367497	0.37667717321734434	0.9850640036033619	0.0016915130573849787	0.33026965625485183	1.0139477987167003
2	0.0333333333333333	0.14634482365032503	0.5660664492404216	0.8642327977531056	0.16390502573691704	0.7058018970261568	1.3582018798986022	0.18720870025961991	0.7926933454177825	1.810996021847712	0.1327281689230038	0.5836534729720091	1.8445029305492522	0.19453014042852526	0.5823141046973302	1.825272663302057	0.1655494718615468	0.888057813180904	1.8861060423701574	-0.07490612183622146	0.5915880740535583	0.8820853806967592	-0.05857205669133855	0.7282748842354652	1.3665089294335635	-0.0334890761086204	0.7820594152885066	1.8279450019905157	-0.043756918085452026	0.5653131153912181	1.8229477998147723	-0.0938526086326872	0.6274671168114089	1.8406493889281015	-0.006668090069300809	0.8357103768576747	1.8754533866786667	-0.0003884798271136633	0.5292362253685927	0.3157443015471004	-0.006160443936777641	0.4643385688813647	0.07989408132767076	-0.022049177619264147	0.423561966734479	0.1978845724684305	0.15891921687465524	0.5252697610128787	0.39811434574930915	0.1954028966887629	0.45382299268071113	0.6620978015296937	0.09783848378620479	0.3789745203613607	0.8973008510939878	0.055929049232108397	0.36888717015285816	0.9884599063742632	0.05979512491537592	0.3706113634135038	1.0349229722583972	0.05206548171100771	0.39013746927634735	1.0237845655703588	-0.160502365980756	0.5550777299714964	0.4180817529177927	-0.1621222796942956	0.5476360586819928	0.6844387204361584	-0.060302568132802416	0.40324148244418107	0.9003586455329124	0.05868566584811798	0.38252474200829983	0.9589029495293663	0.06107374545662969	0.3766279049704512	0.9882579788982553	-0.001130806805762877	0.34772282606836213	1.0205101082663128
3	0.05	0.14376120558727268	0.5662016419643402	0.8662910670813011	0.16317094889830303	0.7052402556958344	1.3571317264945342	0.18696703973628132	0.7929831884179523	1.812658287753649	0.13312964737892158	0.5858502036124572	1.8457608888726555	0.19417377635018612	0.5824909529596787	1.8258340794761412	0.16474295022709795	0.8864772369495137	1.8860977409694697	-0.07464212842919678	0.595653884823947	0.8840248473574337	-0.05866004034320066	0.7283349368376248	1.3674909660320727	-0.03176458398589238	0.7829934932602167	1.8285632516446686	-0.04381259493480228	0.5652914220447572	1.8229646263083539	-0.09310428469299681	0.6224612186316631	1.8380514796226044	-0.006845063806030562	0.835966563012301	1.8761918806251998	-0.00035825382835536835	0.5292186326406314	0.3157315449806962	-0.006249446519425187	0.4640427067984964	0.07910028007345286	-0.022922578133774754	0.4234018709581966	0.19758965867161873	0.15847781239639736	0.5253454136404392	0.39918697275053344	0.19436162655796668	0.4536327435602257	0.6639634048138783	0.10012148633597122	0.3996676477082084	0.9058335199604001	0.05374857773991615	0.3748132142146761	0.9946562793636895	0.05582510018727861	0.37589592366184543	1.0418417394613555	0.051329211808711334	0.39637722214377136	1.0281674337557576	-0.16047107338464128	0.5551055620048395	0.41809134803532677	-0.1617729062668219	0.5490298277419254	0.6854660912656992	-0.06207030896356819	0.4088463362045573	0.9031209414262095	0.056897708211418825	0.38571163887479565	0.9602744879143661	0.0583951631817483	0.38042338707934215	0.9932731570798773	-0.004026698817120992	0.36856644038454056	1.0304258307533125
